<svg xmlns="http://www.w3.org/2000/svg" xmlns:xlink="http://www.w3.org/1999/xlink" width="960" height="40" viewBox="0 0 960 40"><defs><path id="a" d="M19,8.5 L12,3 L12,14 L19,8.5 Z M12,7 L12,10 L11,10 C7,10 4,12 4,16 L4,17 L1,17 L1,16 C1,10 6,7 11,7 L12,7 Z"/><path id="c" d="M8,3 L1,8.5 L8,14 L8,10 L9,10 C13,10 16,12 16,16 L16,17 L19,17 L19,16 C19,10 14,7 9,7 L8,7 L8,3 Z"/><path id="e" d="M19.0006051,15.90023 L19.0006051,17.190229 C19.0092151,17.407354 18.9256751,17.618009 18.7706051,17.77023 C18.6003851,17.928994 18.3730751,18.011979 18.1406051,18.000228 L11.3806051,18.000228 L11.3806051,15.130228 C12.0048851,15.021327 12.5983551,14.779162 13.1206051,14.420228 C13.6697551,14.035981 14.1441851,13.554769 14.5206051,13.000228 C14.9270651,12.415224 15.2407651,11.770968 15.4506051,11.090228 C15.6812251,10.352398 15.7959251,9.58324004 15.7906051,8.81023004 C15.8070951,7.95996004 15.6470551,7.11551004 15.3206051,6.33023004 C15.0338651,5.65299004 14.6040351,5.04577004 14.0606051,4.55023004 C13.5246751,4.06932004 12.8947051,3.70496004 12.2106051,3.48023004 C10.7711751,3.01123004 9.22003408,3.01123004 7.78060508,3.48023004 C6.37584108,3.93900004 5.24048108,4.98675004 4.67060508,6.35023004 C4.34217608,7.13492004 4.18205908,7.97979004 4.20060508,8.83023004 C4.19528208,9.60324004 4.30998108,10.372399 4.54060508,11.110229 C4.75070608,11.784649 5.06445808,12.422277 5.47060608,13.00023 C5.85415208,13.543771 6.33164008,14.014486 6.88060508,14.39023 C7.40285608,14.749165 7.99632908,14.991329 8.62060508,15.10023 L8.62060508,18.00023 L1.86060508,18.00023 C1.62813208,18.011981 1.40082508,17.928996 1.23060508,17.77023 C1.07553408,17.618011 0.991998183,17.407357 1.00060508,17.190231 L1.00060508,15.90023 L5.76060508,15.90023 L6.76060508,16.02023 C6.04107008,15.781801 5.36545608,15.427106 4.76060608,14.970231 C4.15313208,14.511513 3.62017908,13.961695 3.18060508,13.34023 C2.74353008,12.69452 2.40640108,11.98655 2.18060608,11.240231 C1.92533008,10.441886 1.79709908,9.60838004 1.80060608,8.77023004 C1.78750908,7.67918004 2.00918708,6.59808004 2.45060608,5.60023004 C2.83460308,4.68914004 3.39541308,3.86322004 4.10060608,3.17023004 C4.87346308,2.47230004 5.77306008,1.92915004 6.75060508,1.57023004 C7.79067808,1.18571004 8.89175508,0.992600039 10.0006051,1.00023004 C11.1094751,0.992380039 12.2105851,1.18550004 13.2506051,1.57023004 C14.2281551,1.92915004 15.1277451,2.47230004 15.9006051,3.17023004 C16.6569951,3.86283004 17.2628751,4.70358004 17.6806051,5.64023004 C18.1220251,6.63808004 18.3437051,7.71918004 18.3306051,8.81023004 C18.3513451,9.64909004 18.2399851,10.485987 18.0006051,11.290231 C17.7749551,12.036606 17.4378151,12.744598 17.0006051,13.39023 C16.5324151,14.011686 15.9687651,14.555082 15.3306051,15.00023 C14.7251751,15.456198 14.0497251,15.810815 13.3306051,16.050231 L14.3306051,15.930229 L15.3306051,15.930229 L19.0006051,15.90023 Z"/><path id="g" d="M3,14 C4.104569,14 5,14.895431 5,16 C5,17.104569 4.104569,18 3,18 C1.895431,18 1,17.104569 1,16 C1,14.895431 1.895431,14 3,14 Z M19,15 L19,17 L7,17 L7,15 L19,15 Z M3,8 C4.104569,8 5,8.89543 5,10 C5,11.104569 4.104569,12 3,12 C1.895431,12 1,11.104569 1,10 C1,8.89543 1.895431,8 3,8 Z M19,9 L19,11 L7,11 L7,9 L19,9 Z M3,2 C4.104569,2 5,2.89543 5,4 C5,5.10457 4.104569,6 3,6 C1.895431,6 1,5.10457 1,4 C1,2.89543 1.895431,2 3,2 Z M19,3 L19,5 L7,5 L7,3 L19,3 Z"/><path id="i" d="M2,17 L18,17 L18,19 L2,19 L2,17 Z M11.34,2 L14.65,2 L16.65,16 L13.46,16 L13.17,13.12 L8,13.12 L6.43,16 L3.37,16 L11.34,2 Z M9.34,10.71 L12.89,10.71 L12.28,5.2 L9.34,10.71 Z"/><path id="k" d="M8.17,5 C10.83753,5 13,7.16247 13,9.83 L13,9.83 L13,10.17 C12.99736,10.448459 12.97059,10.726163 12.92,11 L12.92,11 L10.82,11 C11.14414,10.083197 11.00381,9.06615 10.4435,8.27138 C9.88319,7.47662 8.972416,7.00273 8,7 L8,7 L5,7 C3.343146,7 2,8.34315 2,10 C2,11.656855 3.343146,13 5,13 L5,13 L6.19,13 C6.521839,13.791349 7.056478,14.481206 7.74,15 L7.74,15 L4.829999,15 C2.162464,15 0,12.837537 0,10.17 L0,10.17 L0,9.83 C0,7.16247 2.162464,5 4.83,5 L4.83,5 Z M15.17,5 C17.83754,5 20,7.16247 20,9.83 L20,9.83 L20,10.17 C20,12.837535 17.83754,15 15.17,15 L15.17,15 L11.83,15 C9.162465,15 7,12.837537 7,10.17 L7,10.17 L7,9.83 C7.00264,9.55154 7.029407,9.27384 7.08,9 L7.08,9 L9.180002,9 C8.855858,9.9168 8.996191,10.93385 9.556501,11.728617 C10.11681,12.523382 11.02758,12.99727 12,13 L12,13 L15,13 C16.65685,13 18,11.656855 18,10 C18,8.34315 16.65685,7 15,7 L15,7 L13.81,7 C13.47816,6.20865 12.94352,5.51879 12.26,5 L12.26,5 Z"/><path id="m" d="M7,6 L8,4 L6,4 C3.79,4 2,6.79 2,9 L2,16 L9,16 L9,9 L5,9 C5,6 7,6 7,6 Z M14,9 C14,6 16,6 16,6 L17,4 L15,4 C12.79,4 11,6.79 11,9 L11,16 L18,16 L18,9 L14,9 Z"/><path id="o" d="M10.0636672,1.0075675 C13.0036672,1.0075675 15.0036672,2.8975675 15.0036672,5.5375675 C15.0427972,7.2137375 14.1648772,8.7778875 12.7136672,9.6175675 C11.2936672,10.5375675 10.8936672,11.1475665 10.8936672,12.3275675 L10.8936672,13.0075675 L8.38366715,13.0075675 L8.38366715,12.1975675 C8.19639515,10.6279215 8.99016015,9.1038875 10.3836672,8.3575675 C11.7236672,7.4575675 12.1736672,6.8275675 12.1736672,5.6475675 C12.1843672,5.0871675 11.9705972,4.5457375 11.5799372,4.1438075 C11.1892772,3.7418775 10.6541472,3.5128075 10.0936672,3.5075675 L9.92366715,3.5075675 C9.31356815,3.4859775 8.71991615,3.7078275 8.27349715,4.1242275 C7.82707815,4.5406375 7.56452015,5.1174475 7.54366715,5.7275675 L7.54366715,5.8975675 L5.00366715,5.8975675 C4.90218215,3.3030975 6.91947215,1.1158375 9.51366715,1.0075675 C9.69686115,0.9974775 9.88047315,0.9974775 10.0636672,1.0075675 Z M8.00366715,17.0075675 C7.94099815,15.9668015 8.73300215,15.0718825 9.77366715,15.0075675 L10.0036672,15.0075675 C11.0336572,14.9330765 11.9290472,15.7075885 12.0036672,16.7375675 C12.0136572,16.8272905 12.0136572,16.9178435 12.0036672,17.0075675 C12.0781572,18.0375545 11.3036472,18.9329425 10.2736672,19.0075655 C10.1839472,19.0175582 10.0933872,19.0175582 10.0036672,19.0075675 C8.96829315,19.0761291 8.07315215,18.2928805 8.00366715,17.2575655 C7.99320915,17.1745615 7.99320915,17.0905735 8.00366715,17.0075675 Z"/><path id="q" d="M16.77,8.00079 L18.71,6.00079 C19.09772,5.61075 19.09772,4.98083 18.71,4.59079 L15.37,1.29079 C14.97996,0.90307 14.35004,0.90307 13.96,1.29079 L12,3.23079 L16.77,8.00079 Z M10.96,4.29079 L1,14.25079 L1,19.00079 L5.75,19.00079 L15.71,9.04079 L10.96,4.29079 Z"/><path id="s" d="M1,4 L1,6 L19,6 L19,4 L1,4 Z M1,11 L19,11 L19,9 L1,9 L1,11 Z M1,16 L19,16 L19,14 L1,14 L1,16 Z"/></defs><g fill="none" fill-rule="evenodd"><g transform="translate(0 11)"><g transform="translate(40)"><mask id="b" fill="#fff"><use xlink:href="#a"/></mask><use xlink:href="#a" fill="#000"/><g fill="#202122" mask="url(#b)"><rect width="20" height="20"/></g></g><mask id="d" fill="#fff"><use xlink:href="#c"/></mask><use xlink:href="#c" fill="#000"/><g fill="#202122" mask="url(#d)"><rect width="20" height="20"/></g></g><g fill="#000" transform="translate(84 13)"><text font-family="ArialMT, Arial" font-size="14">
                    <tspan x="0" y="13">Paragraph</tspan>
                </text><polygon fill-rule="nonzero" points="118.035 6 114 9.86 110.053 6 109 7.053 114 12.053 119 7.053"/></g><g transform="translate(224 11)"><text fill="#000" font-family="ArialMT, Arial" font-size="14">
                    <tspan x="126" y="15">Cite</tspan>
                </text><g fill="#000" transform="translate(233 2)"><text font-family="ArialMT, Arial" font-size="14">
                        <tspan x="0" y="13">Insert</tspan>
                    </text><polygon fill-rule="nonzero" points="51.035 6 47 9.86 43.053 6 42 7.053 47 12.053 52 7.053"/></g><g transform="translate(305)"><mask id="f" fill="#fff"><use xlink:href="#e"/></mask><use xlink:href="#e" fill="#000"/><g fill="#202122" mask="url(#f)"><rect width="20" height="20"/></g></g><g transform="translate(174)"><mask id="h" fill="#fff"><use xlink:href="#g"/></mask><use xlink:href="#g" fill="#000"/><g fill="#202122" mask="url(#h)"><rect width="20" height="20"/></g><polygon fill="#000" fill-rule="nonzero" points="37.035 8 33 11.86 29.053 8 28 9.053 33 14.053 38 9.053"/></g><polygon fill="#000" fill-rule="nonzero" points="37.035 8 33 11.86 29.053 8 28 9.053 33 14.053 38 9.053"/><mask id="j" fill="#fff"><use xlink:href="#i"/></mask><use xlink:href="#i" fill="#000"/><g fill="#202122" mask="url(#j)"><rect width="20" height="20"/></g><g transform="translate(58)"><mask id="l" fill="#fff"><use xlink:href="#k"/></mask><use xlink:href="#k" fill="#000"/><g fill="#202122" mask="url(#l)"><rect width="20" height="20"/></g></g><g transform="translate(100)"><mask id="n" fill="#fff"><use xlink:href="#m"/></mask><use xlink:href="#m" fill="#000"/><g fill="#202122" mask="url(#n)"><rect width="20" height="20"/></g></g></g><g transform="translate(665)"><g transform="translate(0 11)"><mask id="p" fill="#fff"><use xlink:href="#o"/></mask><use xlink:href="#o" fill="#000"/><g fill="#202122" mask="url(#p)"><rect width="20" height="20"/></g></g><g transform="translate(84 11)"><polygon fill="#000" fill-rule="nonzero" points="38.035 8 34 11.86 30.053 8 29 9.053 34 14.053 39 9.053"/><mask id="r" fill="#fff"><use xlink:href="#q"/></mask><use xlink:href="#q" fill="#000"/><g fill="#202122" mask="url(#r)"><rect width="20" height="20"/></g></g><g transform="translate(42 11)"><mask id="t" fill="#fff"><use xlink:href="#s"/></mask><use xlink:href="#s" fill="#000"/><g fill="#202122" mask="url(#t)"><rect width="20" height="20"/></g></g><g transform="translate(146)"><rect width="148" height="39" x=".5" y=".5" fill="#C8CCD1" stroke="#C8CCD1"/><text fill="#FFF" font-family="HelveticaNeue-Bold, Helvetica Neue" font-size="14" font-weight="bold">
                        <tspan x="13.043" y="24">Publish changes…</tspan>
                    </text></g></g><line x1="71.5" x2="71.5" y1=".5" y2="40.5" stroke="#EAECF0" stroke-linecap="square"/><line x1="212.5" x2="212.5" y1=".5" y2="40.5" stroke="#EAECF0" stroke-linecap="square"/></g></svg>